<?xml version="1.0" encoding="UTF-8" standalone="no"?>
<!-- Created with Inkscape (http://www.inkscape.org/) -->

<svg
   xmlns:dc="http://purl.org/dc/elements/1.1/"
   xmlns:cc="http://creativecommons.org/ns#"
   xmlns:rdf="http://www.w3.org/1999/02/22-rdf-syntax-ns#"
   xmlns:svg="http://www.w3.org/2000/svg"
   xmlns="http://www.w3.org/2000/svg"
   xmlns:sodipodi="http://sodipodi.sourceforge.net/DTD/sodipodi-0.dtd"
   xmlns:inkscape="http://www.inkscape.org/namespaces/inkscape"
   width="155.448mm"
   height="74.464333mm"
   viewBox="0 0 155.448 74.464333"
   version="1.1"
   id="svg8"
   inkscape:version="0.92.4 (5da689c313, 2019-01-14)"
   sodipodi:docname="main.svg">
  <defs
     id="defs2">
    <clipPath
       id="clipPath843"
       clipPathUnits="userSpaceOnUse">
      <path
         style="clip-rule:evenodd"
         inkscape:connector-curvature="0"
         id="path841"
         d="M 70.08,544.56 H 474.24 V 701.88 H 70.08 Z" />
    </clipPath>
    <clipPath
       id="clipPath853"
       clipPathUnits="userSpaceOnUse">
      <path
         style="clip-rule:evenodd"
         inkscape:connector-curvature="0"
         id="path851"
         d="M 70.08,544.56 H 474.24 V 701.88 H 70.08 Z" />
    </clipPath>
    <clipPath
       id="clipPath863"
       clipPathUnits="userSpaceOnUse">
      <path
         style="clip-rule:evenodd"
         inkscape:connector-curvature="0"
         id="path861"
         d="M 50.4,526.92 H 491.04 V 738 H 50.4 Z" />
    </clipPath>
    <clipPath
       id="clipPath875"
       clipPathUnits="userSpaceOnUse">
      <path
         style="clip-rule:evenodd"
         inkscape:connector-curvature="0"
         id="path873"
         d="M 50.4,526.92 H 491.04 V 738 H 50.4 Z" />
    </clipPath>
    <clipPath
       id="clipPath887"
       clipPathUnits="userSpaceOnUse">
      <path
         style="clip-rule:evenodd"
         inkscape:connector-curvature="0"
         id="path885"
         d="M 50.4,526.92 H 491.04 V 738 H 50.4 Z" />
    </clipPath>
    <clipPath
       id="clipPath899"
       clipPathUnits="userSpaceOnUse">
      <path
         style="clip-rule:evenodd"
         inkscape:connector-curvature="0"
         id="path897"
         d="M 50.4,526.92 H 491.04 V 738 H 50.4 Z" />
    </clipPath>
    <clipPath
       id="clipPath911"
       clipPathUnits="userSpaceOnUse">
      <path
         style="clip-rule:evenodd"
         inkscape:connector-curvature="0"
         id="path909"
         d="M 50.4,526.92 H 491.04 V 738 H 50.4 Z" />
    </clipPath>
    <clipPath
       id="clipPath923"
       clipPathUnits="userSpaceOnUse">
      <path
         style="clip-rule:evenodd"
         inkscape:connector-curvature="0"
         id="path921"
         d="M 50.4,526.92 H 491.04 V 738 H 50.4 Z" />
    </clipPath>
    <clipPath
       id="clipPath935"
       clipPathUnits="userSpaceOnUse">
      <path
         style="clip-rule:evenodd"
         inkscape:connector-curvature="0"
         id="path933"
         d="M 50.4,526.92 H 491.04 V 738 H 50.4 Z" />
    </clipPath>
    <clipPath
       id="clipPath947"
       clipPathUnits="userSpaceOnUse">
      <path
         style="clip-rule:evenodd"
         inkscape:connector-curvature="0"
         id="path945"
         d="M 50.4,526.92 H 491.04 V 738 H 50.4 Z" />
    </clipPath>
    <clipPath
       id="clipPath959"
       clipPathUnits="userSpaceOnUse">
      <path
         style="clip-rule:evenodd"
         inkscape:connector-curvature="0"
         id="path957"
         d="M 50.4,526.92 H 491.04 V 738 H 50.4 Z" />
    </clipPath>
    <clipPath
       id="clipPath971"
       clipPathUnits="userSpaceOnUse">
      <path
         style="clip-rule:evenodd"
         inkscape:connector-curvature="0"
         id="path969"
         d="M 50.4,526.92 H 491.04 V 738 H 50.4 Z" />
    </clipPath>
    <clipPath
       id="clipPath983"
       clipPathUnits="userSpaceOnUse">
      <path
         style="clip-rule:evenodd"
         inkscape:connector-curvature="0"
         id="path981"
         d="M 50.4,526.92 H 491.04 V 738 H 50.4 Z" />
    </clipPath>
    <clipPath
       id="clipPath995"
       clipPathUnits="userSpaceOnUse">
      <path
         style="clip-rule:evenodd"
         inkscape:connector-curvature="0"
         id="path993"
         d="M 50.4,526.92 H 491.04 V 738 H 50.4 Z" />
    </clipPath>
    <clipPath
       id="clipPath1007"
       clipPathUnits="userSpaceOnUse">
      <path
         style="clip-rule:evenodd"
         inkscape:connector-curvature="0"
         id="path1005"
         d="M 50.4,526.92 H 491.04 V 738 H 50.4 Z" />
    </clipPath>
    <clipPath
       id="clipPath1019"
       clipPathUnits="userSpaceOnUse">
      <path
         style="clip-rule:evenodd"
         inkscape:connector-curvature="0"
         id="path1017"
         d="M 50.4,526.92 H 491.04 V 738 H 50.4 Z" />
    </clipPath>
    <clipPath
       id="clipPath1031"
       clipPathUnits="userSpaceOnUse">
      <path
         style="clip-rule:evenodd"
         inkscape:connector-curvature="0"
         id="path1029"
         d="M 50.4,526.92 H 491.04 V 738 H 50.4 Z" />
    </clipPath>
    <clipPath
       id="clipPath1043"
       clipPathUnits="userSpaceOnUse">
      <path
         style="clip-rule:evenodd"
         inkscape:connector-curvature="0"
         id="path1041"
         d="M 50.4,704.16 H 491.04 V 738 H 50.4 Z" />
    </clipPath>
    <clipPath
       id="clipPath1055"
       clipPathUnits="userSpaceOnUse">
      <path
         style="clip-rule:evenodd"
         inkscape:connector-curvature="0"
         id="path1053"
         d="M 50.4,704.16 H 491.04 V 738 H 50.4 Z" />
    </clipPath>
    <clipPath
       id="clipPath1067"
       clipPathUnits="userSpaceOnUse">
      <path
         style="clip-rule:evenodd"
         inkscape:connector-curvature="0"
         id="path1065"
         d="M 50.4,704.16 H 491.04 V 738 H 50.4 Z" />
    </clipPath>
    <clipPath
       id="clipPath1079"
       clipPathUnits="userSpaceOnUse">
      <path
         style="clip-rule:evenodd"
         inkscape:connector-curvature="0"
         id="path1077"
         d="M 50.4,704.16 H 491.04 V 738 H 50.4 Z" />
    </clipPath>
    <clipPath
       id="clipPath1091"
       clipPathUnits="userSpaceOnUse">
      <path
         style="clip-rule:evenodd"
         inkscape:connector-curvature="0"
         id="path1089"
         d="M 50.4,704.16 H 491.04 V 738 H 50.4 Z" />
    </clipPath>
    <clipPath
       id="clipPath1103"
       clipPathUnits="userSpaceOnUse">
      <path
         style="clip-rule:evenodd"
         inkscape:connector-curvature="0"
         id="path1101"
         d="M 50.4,704.16 H 491.04 V 738 H 50.4 Z" />
    </clipPath>
    <clipPath
       id="clipPath1115"
       clipPathUnits="userSpaceOnUse">
      <path
         style="clip-rule:evenodd"
         inkscape:connector-curvature="0"
         id="path1113"
         d="M 50.4,526.92 H 491.04 V 738 H 50.4 Z" />
    </clipPath>
    <clipPath
       id="clipPath1127"
       clipPathUnits="userSpaceOnUse">
      <path
         style="clip-rule:evenodd"
         inkscape:connector-curvature="0"
         id="path1125"
         d="M 50.4,526.92 H 491.04 V 738 H 50.4 Z" />
    </clipPath>
    <clipPath
       id="clipPath1139"
       clipPathUnits="userSpaceOnUse">
      <path
         style="clip-rule:evenodd"
         inkscape:connector-curvature="0"
         id="path1137"
         d="M 50.4,526.92 H 491.04 V 738 H 50.4 Z" />
    </clipPath>
    <clipPath
       id="clipPath1151"
       clipPathUnits="userSpaceOnUse">
      <path
         style="clip-rule:evenodd"
         inkscape:connector-curvature="0"
         id="path1149"
         d="M 50.4,526.92 H 491.04 V 738 H 50.4 Z" />
    </clipPath>
  </defs>
  <sodipodi:namedview
     id="base"
     pagecolor="#ffffff"
     bordercolor="#666666"
     borderopacity="1.0"
     inkscape:pageopacity="0.0"
     inkscape:pageshadow="2"
     inkscape:zoom="2.02"
     inkscape:cx="296.48499"
     inkscape:cy="160.72"
     inkscape:document-units="mm"
     inkscape:current-layer="layer1"
     showgrid="false"
     inkscape:window-width="1920"
     inkscape:window-height="1186"
     inkscape:window-x="-11"
     inkscape:window-y="-11"
     inkscape:window-maximized="1" />
  <metadata
     id="metadata5">
    <rdf:RDF>
      <cc:Work
         rdf:about="">
        <dc:format>image/svg+xml</dc:format>
        <dc:type
           rdf:resource="http://purl.org/dc/dcmitype/StillImage" />
        <dc:title></dc:title>
      </cc:Work>
    </rdf:RDF>
  </metadata>
  <g
     inkscape:label="Layer 1"
     inkscape:groupmode="layer"
     id="layer1"
     transform="translate(33.122807,-116.89284)">
    <g
       transform="matrix(0.35277777,0,0,-0.35277777,-50.902807,377.24283)"
       inkscape:label="main"
       id="g823">
      <path
         inkscape:connector-curvature="0"
         id="path825"
         style="fill:#ffffff;fill-opacity:1;fill-rule:evenodd;stroke:none"
         d="M 50.4,526.92 H 491.04 V 738 H 50.4 Z" />
      <path
         inkscape:connector-curvature="0"
         id="path827"
         style="fill:none;stroke:#d9d9d9;stroke-width:0.75;stroke-linecap:butt;stroke-linejoin:round;stroke-miterlimit:10;stroke-dasharray:none;stroke-opacity:1"
         d="M 70.197,567.6 H 473.58 M 70.197,589.92 H 473.58 M 70.197,612.36 H 473.58 M 70.197,634.68 H 473.58 M 70.197,657.12 H 473.58 M 70.197,679.44 H 473.58 M 70.197,701.84 H 473.58" />
      <g
         id="g829">
        <path
           inkscape:connector-curvature="0"
           id="path831"
           style="fill:none;stroke:#bfbfbf;stroke-width:0.75;stroke-linecap:butt;stroke-linejoin:round;stroke-miterlimit:10;stroke-dasharray:6, 2.25;stroke-dashoffset:0;stroke-opacity:1"
           d="M 265.16,545.21 V 701.84" />
      </g>
      <path
         inkscape:connector-curvature="0"
         id="path833"
         style="fill:none;stroke:#000000;stroke-width:0.75;stroke-linecap:butt;stroke-linejoin:round;stroke-miterlimit:10;stroke-dasharray:none;stroke-opacity:1"
         d="M 70.197,545.21 H 473.58" />
      <path
         inkscape:connector-curvature="0"
         id="path835"
         style="fill:none;stroke:#000000;stroke-width:0.75;stroke-linecap:butt;stroke-linejoin:round;stroke-miterlimit:10;stroke-dasharray:none;stroke-opacity:1"
         d="m 70.197,545.21 v -3.02 m 67.203,3.02 v -3.02 m 67.2,3.02 v -3.02 m 67.32,3.02 v -3.02 m 67.2,3.02 v -3.02 m 67.2,3.02 v -3.02 m 67.26,3.02 v -3.02" />
      <g
         id="g837">
        <g
           clip-path="url(#clipPath843)"
           id="g839">
          <path
             inkscape:connector-curvature="0"
             id="path845"
             style="fill:none;stroke:#7f7f7f;stroke-width:2.25;stroke-linecap:round;stroke-linejoin:round;stroke-miterlimit:10;stroke-dasharray:0, 4.5;stroke-dashoffset:0;stroke-opacity:1"
             d="m 265.16,659.84 h 6.76 6.72 6.72 6.72 6.72 6.72 6.72 6.72 6.72 6.72 6.72 6.72 6.72 6.72 6.72 6.72 6.72 6.72 6.72 6.72 6.72 6.72 6.72 6.72 6.72 6.72 6.72 6.72 6.72 6.72 6.78" />
        </g>
      </g>
      <g
         id="g847">
        <g
           clip-path="url(#clipPath853)"
           id="g849">
          <path
             inkscape:connector-curvature="0"
             id="path855"
             style="fill:none;stroke:#003953;stroke-width:2.25;stroke-linecap:round;stroke-linejoin:round;stroke-miterlimit:10;stroke-dasharray:none;stroke-opacity:1"
             d="m 70.197,657.96 6.723,-0.96 6.72,2.16 6.72,2.04 6.72,1.8 6.72,1.32 6.72,4.2 6.72,1.56 6.72,1.08 6.72,1.44 6.72,3.84 6.72,-2.28 6.72,1.08 6.72,1.08 6.72,2.64 6.72,0.48 6.72,-1.92 6.72,2.02 6.72,-4.18 6.72,-9.48 6.72,4.32 6.84,-3.12 6.72,-4.8 6.72,2.76 6.72,1.32 6.72,-3.36 6.72,-2.04 6.72,-0.96 6.72,3.12 6.72,-3.24 6.72,-3 6.72,-0.72 6.72,-1.08 6.72,-1.68 6.72,-0.84 6.72,-1.44 6.72,0.48 6.72,-0.72 6.72,-0.36 6.72,-0.24 6.72,-0.48 6.72,-0.08 6.72,0.08 6.72,0.24 6.72,0.24 6.72,-0.12 6.72,-0.12 6.72,0.24 h 6.72 l 6.72,0.12 6.72,0.36 6.72,0.24 6.72,0.24 6.72,0.36 6.72,0.24 6.72,0.36 6.72,0.6 6.72,0.6 6.72,0.6 6.72,0.72 6.78,0.6" />
        </g>
      </g>
      <g
         id="g857">
        <g
           clip-path="url(#clipPath863)"
           id="g859">
          <text
             id="text867"
             style="font-variant:normal;font-weight:normal;font-size:9.96000004px;font-family:Arial;-inkscape-font-specification:ArialMT;writing-mode:lr-tb;fill:#000000;fill-opacity:1;fill-rule:nonzero;stroke:none"
             transform="matrix(1,0,0,-1,56.04,542.06)">
            <tspan
               id="tspan865"
               y="0"
               x="0">0</tspan>
          </text>
        </g>
      </g>
      <g
         id="g869">
        <g
           clip-path="url(#clipPath875)"
           id="g871">
          <text
             id="text879"
             style="font-variant:normal;font-weight:normal;font-size:9.96000004px;font-family:Arial;-inkscape-font-specification:ArialMT;writing-mode:lr-tb;fill:#000000;fill-opacity:1;fill-rule:nonzero;stroke:none"
             transform="matrix(1,0,0,-1,56.04,564.43)">
            <tspan
               id="tspan877"
               y="0"
               x="0">1</tspan>
          </text>
        </g>
      </g>
      <g
         id="g881">
        <g
           clip-path="url(#clipPath887)"
           id="g883">
          <text
             id="text891"
             style="font-variant:normal;font-weight:normal;font-size:9.96000004px;font-family:Arial;-inkscape-font-specification:ArialMT;writing-mode:lr-tb;fill:#000000;fill-opacity:1;fill-rule:nonzero;stroke:none"
             transform="matrix(1,0,0,-1,56.04,586.82)">
            <tspan
               id="tspan889"
               y="0"
               x="0">2</tspan>
          </text>
        </g>
      </g>
      <g
         id="g893">
        <g
           clip-path="url(#clipPath899)"
           id="g895">
          <text
             id="text903"
             style="font-variant:normal;font-weight:normal;font-size:9.96000004px;font-family:Arial;-inkscape-font-specification:ArialMT;writing-mode:lr-tb;fill:#000000;fill-opacity:1;fill-rule:nonzero;stroke:none"
             transform="matrix(1,0,0,-1,56.04,609.19)">
            <tspan
               id="tspan901"
               y="0"
               x="0">3</tspan>
          </text>
        </g>
      </g>
      <g
         id="g905">
        <g
           clip-path="url(#clipPath911)"
           id="g907">
          <text
             id="text915"
             style="font-variant:normal;font-weight:normal;font-size:9.96000004px;font-family:Arial;-inkscape-font-specification:ArialMT;writing-mode:lr-tb;fill:#000000;fill-opacity:1;fill-rule:nonzero;stroke:none"
             transform="matrix(1,0,0,-1,56.04,631.58)">
            <tspan
               id="tspan913"
               y="0"
               x="0">4</tspan>
          </text>
        </g>
      </g>
      <g
         id="g917">
        <g
           clip-path="url(#clipPath923)"
           id="g919">
          <text
             id="text927"
             style="font-variant:normal;font-weight:normal;font-size:9.96000004px;font-family:Arial;-inkscape-font-specification:ArialMT;writing-mode:lr-tb;fill:#000000;fill-opacity:1;fill-rule:nonzero;stroke:none"
             transform="matrix(1,0,0,-1,56.04,653.95)">
            <tspan
               id="tspan925"
               y="0"
               x="0">5</tspan>
          </text>
        </g>
      </g>
      <g
         id="g929">
        <g
           clip-path="url(#clipPath935)"
           id="g931">
          <text
             id="text939"
             style="font-variant:normal;font-weight:normal;font-size:9.96000004px;font-family:Arial;-inkscape-font-specification:ArialMT;writing-mode:lr-tb;fill:#000000;fill-opacity:1;fill-rule:nonzero;stroke:none"
             transform="matrix(1,0,0,-1,56.04,676.34)">
            <tspan
               id="tspan937"
               y="0"
               x="0">6</tspan>
          </text>
        </g>
      </g>
      <g
         id="g941">
        <g
           clip-path="url(#clipPath947)"
           id="g943">
          <text
             id="text951"
             style="font-variant:normal;font-weight:normal;font-size:9.96000004px;font-family:Arial;-inkscape-font-specification:ArialMT;writing-mode:lr-tb;fill:#000000;fill-opacity:1;fill-rule:nonzero;stroke:none"
             transform="matrix(1,0,0,-1,56.04,698.71)">
            <tspan
               id="tspan949"
               y="0"
               x="0">7</tspan>
          </text>
        </g>
      </g>
      <g
         id="g953">
        <g
           clip-path="url(#clipPath959)"
           id="g955">
          <text
             id="text963"
             style="font-variant:normal;font-weight:normal;font-size:9.96000004px;font-family:Arial;-inkscape-font-specification:ArialMT;writing-mode:lr-tb;fill:#000000;fill-opacity:1;fill-rule:nonzero;stroke:none"
             transform="matrix(1,0,0,-1,59.088,530.14)">
            <tspan
               id="tspan961"
               sodipodi:role="line"
               y="0"
               x="0 5.5377598 11.14524 16.683001">1990</tspan>
          </text>
        </g>
      </g>
      <g
         id="g965">
        <g
           clip-path="url(#clipPath971)"
           id="g967">
          <text
             id="text975"
             style="font-variant:normal;font-weight:normal;font-size:9.96000004px;font-family:Arial;-inkscape-font-specification:ArialMT;writing-mode:lr-tb;fill:#000000;fill-opacity:1;fill-rule:nonzero;stroke:none"
             transform="matrix(1,0,0,-1,126.34,530.14)">
            <tspan
               id="tspan973"
               sodipodi:role="line"
               y="0"
               x="0 5.5377598 11.14524 16.683001">2000</tspan>
          </text>
        </g>
      </g>
      <g
         id="g977">
        <g
           clip-path="url(#clipPath983)"
           id="g979">
          <text
             id="text987"
             style="font-variant:normal;font-weight:normal;font-size:9.96000004px;font-family:Arial;-inkscape-font-specification:ArialMT;writing-mode:lr-tb;fill:#000000;fill-opacity:1;fill-rule:nonzero;stroke:none"
             transform="matrix(1,0,0,-1,193.56,530.14)">
            <tspan
               id="tspan985"
               sodipodi:role="line"
               y="0"
               x="0 5.5377598 11.14524 16.683001">2010</tspan>
          </text>
        </g>
      </g>
      <g
         id="g989">
        <g
           clip-path="url(#clipPath995)"
           id="g991">
          <text
             id="text999"
             style="font-variant:normal;font-weight:normal;font-size:9.96000004px;font-family:Arial;-inkscape-font-specification:ArialMT;writing-mode:lr-tb;fill:#000000;fill-opacity:1;fill-rule:nonzero;stroke:none"
             transform="matrix(1,0,0,-1,260.81,530.14)">
            <tspan
               id="tspan997"
               sodipodi:role="line"
               y="0"
               x="0 5.5377598 11.14524 16.683001">2020</tspan>
          </text>
        </g>
      </g>
      <g
         id="g1001">
        <g
           clip-path="url(#clipPath1007)"
           id="g1003">
          <text
             id="text1011"
             style="font-variant:normal;font-weight:normal;font-size:9.96000004px;font-family:Arial;-inkscape-font-specification:ArialMT;writing-mode:lr-tb;fill:#000000;fill-opacity:1;fill-rule:nonzero;stroke:none"
             transform="matrix(1,0,0,-1,328.06,530.14)">
            <tspan
               id="tspan1009"
               sodipodi:role="line"
               y="0"
               x="0 5.5377598 11.14524 16.683001">2030</tspan>
          </text>
        </g>
      </g>
      <g
         id="g1013">
        <g
           clip-path="url(#clipPath1019)"
           id="g1015">
          <text
             id="text1023"
             style="font-variant:normal;font-weight:normal;font-size:9.96000004px;font-family:Arial;-inkscape-font-specification:ArialMT;writing-mode:lr-tb;fill:#000000;fill-opacity:1;fill-rule:nonzero;stroke:none"
             transform="matrix(1,0,0,-1,395.3,530.14)">
            <tspan
               id="tspan1021"
               sodipodi:role="line"
               y="0"
               x="0 5.5377598 11.14524 16.683001">2040</tspan>
          </text>
        </g>
      </g>
      <g
         id="g1025">
        <g
           clip-path="url(#clipPath1031)"
           id="g1027">
          <text
             id="text1035"
             style="font-variant:normal;font-weight:normal;font-size:9.96000004px;font-family:Arial;-inkscape-font-specification:ArialMT;writing-mode:lr-tb;fill:#000000;fill-opacity:1;fill-rule:nonzero;stroke:none"
             transform="matrix(1,0,0,-1,462.55,530.14)">
            <tspan
               id="tspan1033"
               sodipodi:role="line"
               y="0"
               x="0 5.5377598 11.14524 16.683001">2050</tspan>
          </text>
        </g>
      </g>
      <g
         id="g1037">
        <g
           clip-path="url(#clipPath1043)"
           id="g1039">
          <text
             id="text1047"
             style="font-variant:normal;font-weight:bold;font-size:9.96000004px;font-family:Arial;-inkscape-font-specification:Arial-BoldMT;writing-mode:lr-tb;fill:#000000;fill-opacity:1;fill-rule:nonzero;stroke:none"
             transform="matrix(1,0,0,-1,52.56,726.48)">
            <tspan
               id="tspan1045"
               sodipodi:role="line"
               y="0"
               x="0 7.1911201 9.96 16.56348 19.332359 22.19088 27.72864 33.814201 39.351959 43.186562 49.292042">U.S. energy</tspan>
          </text>
        </g>
      </g>
      <g
         id="g1049">
        <g
           clip-path="url(#clipPath1055)"
           id="g1051">
          <text
             id="text1059"
             style="font-variant:normal;font-weight:bold;font-size:9.96000004px;font-family:Arial;-inkscape-font-specification:Arial-BoldMT;writing-mode:lr-tb;fill:#000000;fill-opacity:1;fill-rule:nonzero;stroke:none"
             transform="matrix(1,0,0,-1,107.3,726.48)">
            <tspan
               id="tspan1057"
               y="0"
               x="0">-</tspan>
          </text>
        </g>
      </g>
      <g
         id="g1061">
        <g
           clip-path="url(#clipPath1067)"
           id="g1063">
          <text
             id="text1071"
             style="font-variant:normal;font-weight:bold;font-size:9.96000004px;font-family:Arial;-inkscape-font-specification:Arial-BoldMT;writing-mode:lr-tb;fill:#000000;fill-opacity:1;fill-rule:nonzero;stroke:none"
             transform="matrix(1,0,0,-1,110.66,726.48)">
            <tspan
               id="tspan1069"
               sodipodi:role="line"
               y="0"
               x="0 3.8445599 9.3823204 12.1512 17.64912 20.99568 26.53344 32.618999 35.865959 43.057079 50.855759">related CO2</tspan>
          </text>
        </g>
      </g>
      <g
         id="g1073">
        <g
           clip-path="url(#clipPath1079)"
           id="g1075">
          <text
             id="text1083"
             style="font-variant:normal;font-weight:bold;font-size:9.96000004px;font-family:Arial;-inkscape-font-specification:Arial-BoldMT;writing-mode:lr-tb;fill:#000000;fill-opacity:1;fill-rule:nonzero;stroke:none"
             transform="matrix(1,0,0,-1,169.82,726.48)">
            <tspan
               id="tspan1081"
               sodipodi:role="line"
               y="0"
               x="0 5.5377598 14.3922 17.161079 22.698839 28.19676 30.965639 37.051201 43.186562 48.724319 51.493198 54.461281 61.303799 67.90728 75.695999 81.233757 86.731682 92.26944 97.767357 101.11392 108.30504 113.8428 117.1794 122.71716 126.5418 132.07956 138.16512 143.70288 149.24065 152.20872 157.74648 163.2444 168.78217 174.28008 177.26808 180.61464 186.1524 191.65031 197.18808">emissions, AEO2020 Reference case (1990</tspan>
          </text>
        </g>
      </g>
      <g
         id="g1085">
        <g
           clip-path="url(#clipPath1091)"
           id="g1087">
          <text
             id="text1095"
             style="font-variant:normal;font-weight:bold;font-size:9.96000004px;font-family:Arial;-inkscape-font-specification:Arial-BoldMT;writing-mode:lr-tb;fill:#000000;fill-opacity:1;fill-rule:nonzero;stroke:none"
             transform="matrix(1,0,0,-1,372.67,726.48)">
            <tspan
               id="tspan1093"
               y="0"
               x="0">-</tspan>
          </text>
        </g>
      </g>
      <g
         id="g1097">
        <g
           clip-path="url(#clipPath1103)"
           id="g1099">
          <text
             id="text1107"
             style="font-variant:normal;font-weight:bold;font-size:9.96000004px;font-family:Arial;-inkscape-font-specification:Arial-BoldMT;writing-mode:lr-tb;fill:#000000;fill-opacity:1;fill-rule:nonzero;stroke:none"
             transform="matrix(1,0,0,-1,376.03,726.48)">
            <tspan
               id="tspan1105"
               sodipodi:role="line"
               y="0"
               x="0 5.5199599 11.03992 16.559879 22.07984">2050)</tspan>
          </text>
        </g>
      </g>
      <g
         id="g1109">
        <g
           clip-path="url(#clipPath1115)"
           id="g1111">
          <text
             id="text1119"
             style="font-variant:normal;font-weight:normal;font-size:9.96000004px;font-family:Arial;-inkscape-font-specification:ArialMT;writing-mode:lr-tb;fill:#000000;fill-opacity:1;fill-rule:nonzero;stroke:none"
             transform="matrix(1,0,0,-1,52.56,714.96)">
            <tspan
               id="tspan1117"
               sodipodi:role="line"
               y="0"
               x="0 5.5377598 7.6791601 9.8404799 12.0018 14.16312 19.70088 25.198799 28.30632 36.81216 42.349918 45.118801 48.435478 50.616718 55.646519 58.285919 61.054798 66.59256 72.090477">billion metric tons</tspan>
          </text>
        </g>
      </g>
      <g
         id="g1121">
        <g
           clip-path="url(#clipPath1127)"
           id="g1123">
          <text
             id="text1131"
             style="font-variant:normal;font-weight:bold;font-size:9.96000004px;font-family:Arial;-inkscape-font-specification:Arial-BoldMT;writing-mode:lr-tb;fill:#000000;fill-opacity:1;fill-rule:nonzero;stroke:none"
             transform="matrix(1,0,0,-1,251.76,704.98)">
            <tspan
               id="tspan1129"
               sodipodi:role="line"
               y="0"
               x="0 5.5199599 11.03992 16.559879">2019</tspan>
          </text>
        </g>
      </g>
      <g
         id="g1133">
        <g
           clip-path="url(#clipPath1139)"
           id="g1135">
          <text
             id="text1143"
             style="font-variant:normal;font-weight:normal;font-size:9.96000004px;font-family:Arial;-inkscape-font-specification:ArialMT;writing-mode:lr-tb;fill:#000000;fill-opacity:1;fill-rule:nonzero;stroke:none"
             transform="matrix(1,0,0,-1,227.28,691.66)">
            <tspan
               id="tspan1141"
               sodipodi:role="line"
               y="0"
               x="0 5.5377598 7.6791601 12.70896 15.47784 21.0156 24.332279 29.0334 43.29612 48.833881 52.150558 57.68832 59.969158 65.50692 70.5168 73.285683 75.437042 80.9748">history projection</tspan>
          </text>
        </g>
      </g>
      <g
         id="g1145">
        <g
           clip-path="url(#clipPath1151)"
           id="g1147">
          <text
             id="text1155"
             style="font-variant:normal;font-weight:normal;font-size:9px;font-family:Arial;-inkscape-font-specification:ArialMT;writing-mode:lr-tb;fill:#595959;fill-opacity:1;fill-rule:nonzero;stroke:none"
             transform="matrix(1,0,0,-1,343.58,663.29)">
            <tspan
               id="tspan1153"
               sodipodi:role="line"
               y="0"
               x="0 5.0310001 10.062 15.093 20.124001 22.527 27.558001 35.109001 37.143002 41.696999 46.250999 48.285 53.316002 58.347 62.784 64.944 66.977997 72.009003 76.445999 81.476997">2019 emissions level</tspan>
          </text>
        </g>
      </g>
    </g>
    <g
       id="g1356"
       transform="matrix(0.26458333,0,0,0.26458333,110.82734,119.68828)">
      <path
         style="fill:#455560;stroke-width:0.27698913"
         inkscape:connector-curvature="0"
         id="path1537"
         d="m 3.6839501,11.98809 c 0.4154837,-0.470881 0.941763,-0.692473 1.6065369,-0.692473 0.637075,0 1.1633544,0.221592 1.5788384,0.664774 0.415483,0.443183 0.637075,1.02486 0.637075,1.772731 v 0.166193 H 3.0191762 c 0.027699,-0.830967 0.2769891,-1.468042 0.6647739,-1.911225 m 5.1519973,5.678277 c -0.470881,0.470882 -0.830967,0.803269 -1.135655,0.969462 -0.387785,0.221592 -0.858666,0.332387 -1.3849456,0.332387 -0.5816772,0 -1.1356554,-0.193892 -1.6619348,-0.581677 C 4.1271327,17.998754 3.711649,17.472475 3.4346599,16.780002 3.1576707,16.087529 3.0191762,15.31196 3.0191762,14.370197 v -0.110796 h 6.0937612 v -0.166193 c 0,-0.914065 -0.360086,-1.689634 -1.080258,-2.326709 -0.720172,-0.664774 -1.5511391,-0.969462 -2.5206011,-0.969462 -1.1633543,0 -2.1605152,0.443183 -2.9637836,1.301849 -0.8032685,0.858666 -1.1910533,1.938924 -1.1910533,3.213074 0,1.246451 0.4154837,2.299009 1.27415,3.129977 0.8309674,0.830967 1.911225,1.218752 3.2130739,1.218752 0.7201717,0 1.3572471,-0.138495 1.8835261,-0.415484 0.526279,-0.276989 1.02486,-0.74787 1.52344,-1.384945 v 0 z"
         class="st0" />
      <path
         style="fill:#455560;stroke-width:0.27698913"
         inkscape:connector-curvature="0"
         id="path1539"
         d="m 20.164803,17.694066 c -0.138495,0.304688 -0.387785,0.553978 -0.747871,0.747871 -0.332387,0.193892 -0.664774,0.304688 -0.997161,0.304688 -0.332387,0 -0.637075,-0.138495 -0.886365,-0.443183 -0.24929,-0.304688 -0.387785,-0.664774 -0.387785,-1.080257 0,-0.470882 0.110796,-0.858667 0.360086,-1.135656 0.221591,-0.276989 0.77557,-0.553978 1.606537,-0.858666 0.443183,-0.166194 0.803269,-0.276989 1.02486,-0.387785 v 2.852988 z m 2.769891,0.332387 c -0.110796,0.304688 -0.443183,0.720172 -0.692473,0.720172 -0.193892,0 -0.304688,-0.0831 -0.360086,-0.276989 -0.0554,-0.193893 -0.110795,-0.52628 -0.110795,-1.02486 v -3.57316 c 0,-0.969462 -0.276989,-1.717332 -0.830968,-2.243612 -0.553978,-0.553978 -1.27415,-0.803268 -2.188214,-0.803268 -0.74787,0 -1.412644,0.221591 -1.994321,0.692473 -0.553979,0.443182 -0.914065,1.052558 -1.080258,1.800429 l 0.415484,0.166193 c 0.166193,-0.553978 0.443182,-0.99716 0.830967,-1.301848 0.387785,-0.332387 0.858666,-0.470882 1.384946,-0.470882 0.581677,0 1.024859,0.193892 1.357246,0.553978 0.332387,0.360086 0.498581,0.858667 0.498581,1.468043 v 0.609376 c -0.276989,0.166193 -0.803269,0.332387 -1.578838,0.553978 -1.246451,0.332387 -2.04972,0.720172 -2.465203,1.080258 -0.415484,0.387784 -0.609377,0.858666 -0.609377,1.440343 0,0.609376 0.221592,1.135655 0.692473,1.578838 0.470882,0.443183 1.02486,0.664774 1.689634,0.664774 0.443183,0 0.803268,-0.0831 1.135655,-0.24929 0.332387,-0.166194 0.692473,-0.470882 1.107957,-0.941763 0.24929,0.803268 0.720172,1.191053 1.412644,1.191053 0.470882,0 0.858667,-0.166193 1.135656,-0.470882 0.24929,-0.276989 0.415484,-0.609376 0.470881,-1.052558 z"
         class="st0" />
      <path
         style="fill:#455560;stroke-width:0.27698913"
         inkscape:connector-curvature="0"
         id="path1541"
         d="m 13.489365,18.746625 c -0.193893,-0.166194 -0.304688,-0.470882 -0.304688,-0.914064 v -7.090922 h -0.52628 v 0.0277 c -0.49858,0.221591 -2.6590946,0.276989 -2.6590946,0.276989 v 0.387785 c 0.6924726,0 1.1356546,0.0831 1.3018486,0.24929 0.166193,0.166194 0.276989,0.498581 0.276989,0.997161 v 5.151998 c 0,0.470881 -0.0831,0.775569 -0.276989,0.941763 -0.193893,0.138494 -0.609376,0.221591 -1.3018486,0.221591 v 0.387785 h 4.5703196 v -0.387785 c -0.526279,0 -0.886365,-0.0831 -1.080257,-0.24929"
         class="st0" />
      <path
         style="fill:#6cb33f;stroke-width:0.27698913"
         inkscape:connector-curvature="0"
         id="path1543"
         d="m 4.1271327,9.4120907 c 0.027699,-0.0277 0.083097,-0.0831 0.1661935,-0.166193 2.4929022,-2.409806 5.2350942,-4.404127 7.9772868,-5.816772 1.634236,-0.830967 3.213074,-1.412644 4.708815,-1.717333 3.323869,-0.692472 5.401288,0.110796 6.038363,0.637075 0.110795,0.0831 0.166193,0.166194 0.193892,0.249291 -1.938924,-0.193893 -3.960944,-0.0831 -6.066062,0.332387 -3.794751,0.803268 -7.6448996,2.575999 -11.4396503,5.290492 -0.4985804,0.360086 -0.9694619,0.720172 -1.4403435,1.080258 -0.055398,0.0554 -0.1107956,0.0831 -0.1384945,0.110795"
         class="st1" />
      <path
         style="fill:#ffdd00;stroke-width:0.27698913"
         inkscape:connector-curvature="0"
         id="path1545"
         d="m 3.2961653,9.6059837 c 0.027699,-0.0554 0.083097,-0.166194 0.1938924,-0.276989 0.8309674,-1.191054 2.1051174,-2.908386 3.1022782,-4.09944 2.3544075,-2.769891 4.5980191,-3.600858 5.7059761,-3.82245 0.553978,-0.110795 0.969462,-0.110795 1.135655,-0.110795 0,0 -0.0277,0.0554 -0.110796,0.110795 -1.191053,0.637075 -4.3764276,2.326709 -7.3402112,5.262794 -0.7201717,0.692473 -1.3572467,1.440343 -1.9112249,2.049719 -0.2215913,0.249291 -0.3877848,0.443183 -0.5816772,0.637075 -0.055398,0.138495 -0.1384946,0.193893 -0.1938924,0.249291"
         class="st2" />
      <path
         style="fill:#0081c6;stroke-width:0.27698913"
         inkscape:connector-curvature="0"
         id="path1547"
         d="m 24.652027,15.921336 c 0,-0.110796 0.0277,-0.276989 0.0831,-0.443183 0.720172,-2.132816 0.664774,-4.127138 -0.166193,-5.7613744 -1.717333,-3.3792669 -5.844471,-4.7365139 -11.079565,-3.6562559 -2.409806,0.49858 -4.9304066,1.468042 -7.4787062,2.908386 -0.1384946,0.0831 -0.2769892,0.166193 -0.4154837,0.24929 -0.1384946,0.0831 -0.2215913,0.138494 -0.3046881,0.166193 0.055398,-0.0554 0.1384946,-0.110795 0.2769891,-0.193892 0.7201718,-0.49858 1.4957413,-0.997161 2.2713113,-1.412645 2.2159126,-1.218752 4.5703196,-2.132816 6.8139316,-2.603697 5.262794,-1.080258 9.528426,0.166193 11.079565,3.268471 0.52628,1.052559 0.720172,2.2436123 0.581677,3.5454613 -0.166193,1.495741 -0.692472,2.79759 -1.661934,3.933246"
         class="st3" />
      <path
         style="fill:#455560;stroke-width:0.27698913"
         inkscape:connector-curvature="0"
         id="path1549"
         d="m 13.129279,8.8027147 c 0,0.498581 -0.387785,0.8863649 -0.886365,0.8863649 -0.498581,0 -0.886365,-0.3877839 -0.886365,-0.8863649 0,-0.49858 0.415483,-0.886365 0.886365,-0.886365 0.470881,-0.0277 0.886365,0.387785 0.886365,0.886365"
         class="st0" />
    </g>
  </g>
  <style
     id="style1535"
     type="text/css">
	.st0{fill:#455560;}
	.st1{fill:#6CB33F;}
	.st2{fill:#FFDD00;}
	.st3{fill:#0081C6;}
</style>
</svg>
