<?xml version="1.0" encoding="UTF-8" standalone="no"?>
<!-- Created with Inkscape (http://www.inkscape.org/) -->

<svg
   xmlns:dc="http://purl.org/dc/elements/1.1/"
   xmlns:cc="http://creativecommons.org/ns#"
   xmlns:rdf="http://www.w3.org/1999/02/22-rdf-syntax-ns#"
   xmlns:svg="http://www.w3.org/2000/svg"
   xmlns="http://www.w3.org/2000/svg"
   xmlns:sodipodi="http://sodipodi.sourceforge.net/DTD/sodipodi-0.dtd"
   xmlns:inkscape="http://www.inkscape.org/namespaces/inkscape"
   version="1.1"
   id="svg3713"
   xml:space="preserve"
   width="587.51996"
   height="276.47998"
   viewBox="0 0 587.51996 276.47998"
   sodipodi:docname="main.svg"
   inkscape:version="0.92.4 (5da689c313, 2019-01-14)"><metadata
     id="metadata3719"><rdf:RDF><cc:Work
         rdf:about=""><dc:format>image/svg+xml</dc:format><dc:type
           rdf:resource="http://purl.org/dc/dcmitype/StillImage" /><dc:title></dc:title></cc:Work></rdf:RDF></metadata><defs
     id="defs3717"><clipPath
       clipPathUnits="userSpaceOnUse"
       id="clipPath3747"><path
         d="m 74.16,559.92 h 377.88 v 153.6 H 74.16 Z"
         id="path3745"
         inkscape:connector-curvature="0" /></clipPath><clipPath
       clipPathUnits="userSpaceOnUse"
       id="clipPath3777"><path
         d="M 38.4,542.64 H 479.04 V 750 H 38.4 Z"
         id="path3775"
         inkscape:connector-curvature="0" /></clipPath><clipPath
       clipPathUnits="userSpaceOnUse"
       id="clipPath3789"><path
         d="M 38.4,542.64 H 479.04 V 750 H 38.4 Z"
         id="path3787"
         inkscape:connector-curvature="0" /></clipPath><clipPath
       clipPathUnits="userSpaceOnUse"
       id="clipPath3801"><path
         d="M 38.4,542.64 H 479.04 V 750 H 38.4 Z"
         id="path3799"
         inkscape:connector-curvature="0" /></clipPath><clipPath
       clipPathUnits="userSpaceOnUse"
       id="clipPath3813"><path
         d="M 38.4,542.64 H 479.04 V 750 H 38.4 Z"
         id="path3811"
         inkscape:connector-curvature="0" /></clipPath><clipPath
       clipPathUnits="userSpaceOnUse"
       id="clipPath3825"><path
         d="M 38.4,542.64 H 479.04 V 750 H 38.4 Z"
         id="path3823"
         inkscape:connector-curvature="0" /></clipPath><clipPath
       clipPathUnits="userSpaceOnUse"
       id="clipPath3837"><path
         d="M 38.4,542.64 H 479.04 V 750 H 38.4 Z"
         id="path3835"
         inkscape:connector-curvature="0" /></clipPath><clipPath
       clipPathUnits="userSpaceOnUse"
       id="clipPath3849"><path
         d="M 38.4,542.64 H 479.04 V 750 H 38.4 Z"
         id="path3847"
         inkscape:connector-curvature="0" /></clipPath><clipPath
       clipPathUnits="userSpaceOnUse"
       id="clipPath3861"><path
         d="M 38.4,698.88 H 479.04 V 750 H 38.4 Z"
         id="path3859"
         inkscape:connector-curvature="0" /></clipPath><clipPath
       clipPathUnits="userSpaceOnUse"
       id="clipPath3873"><path
         d="M 38.4,698.88 H 479.04 V 750 H 38.4 Z"
         id="path3871"
         inkscape:connector-curvature="0" /></clipPath><clipPath
       clipPathUnits="userSpaceOnUse"
       id="clipPath3885"><path
         d="M 38.4,698.88 H 479.04 V 750 H 38.4 Z"
         id="path3883"
         inkscape:connector-curvature="0" /></clipPath><clipPath
       clipPathUnits="userSpaceOnUse"
       id="clipPath3897"><path
         d="M 38.4,698.88 H 479.04 V 750 H 38.4 Z"
         id="path3895"
         inkscape:connector-curvature="0" /></clipPath><clipPath
       clipPathUnits="userSpaceOnUse"
       id="clipPath3909"><path
         d="M 38.4,698.88 H 479.04 V 750 H 38.4 Z"
         id="path3907"
         inkscape:connector-curvature="0" /></clipPath><clipPath
       clipPathUnits="userSpaceOnUse"
       id="clipPath3921"><path
         d="M 38.4,698.88 H 479.04 V 750 H 38.4 Z"
         id="path3919"
         inkscape:connector-curvature="0" /></clipPath><clipPath
       clipPathUnits="userSpaceOnUse"
       id="clipPath3933"><path
         d="M 38.4,698.88 H 479.04 V 750 H 38.4 Z"
         id="path3931"
         inkscape:connector-curvature="0" /></clipPath></defs><sodipodi:namedview
     pagecolor="#ffffff"
     bordercolor="#666666"
     borderopacity="1"
     objecttolerance="10"
     gridtolerance="10"
     guidetolerance="10"
     inkscape:pageopacity="0"
     inkscape:pageshadow="2"
     inkscape:window-width="1920"
     inkscape:window-height="1012"
     id="namedview3715"
     showgrid="false"
     inkscape:zoom="2.236492"
     inkscape:cx="333.86711"
     inkscape:cy="139.08377"
     inkscape:window-x="-4"
     inkscape:window-y="-4"
     inkscape:window-maximized="1"
     inkscape:current-layer="g3721" /><g
     id="g3721"
     inkscape:groupmode="layer"
     inkscape:label="AEO CO2"
     transform="matrix(1.3333333,0,0,-1.3333333,-51.199999,999.99998)"><path
       d="M 38.4,542.64 H 479.04 V 750 H 38.4 Z"
       style="fill:#ffffff;fill-opacity:1;fill-rule:nonzero;stroke:none"
       id="path3723"
       inkscape:connector-curvature="0" /><g
       id="g3725"
       transform="translate(74.2283,582.48)"><path
         d="M 0,0 H 377.149 M 0,21.84 H 377.149 M 0,43.68 H 377.149 M 0,65.52 H 377.149 M 0,87.36 H 377.149 M 0,109.2 H 377.149 M 0,131.04 h 377.149"
         style="fill:none;stroke:#d9d9d9;stroke-width:0.75;stroke-linecap:butt;stroke-linejoin:round;stroke-miterlimit:10;stroke-dasharray:none;stroke-opacity:1"
         id="path3727"
         inkscape:connector-curvature="0" /></g><g
       id="g3729"
       transform="translate(250.2313,560.6033)"><path
         d="M 0,0 V 152.917"
         style="fill:none;stroke:#a6a6a6;stroke-width:1;stroke-linecap:butt;stroke-linejoin:round;stroke-miterlimit:10;stroke-dasharray:8, 3;stroke-dashoffset:0;stroke-opacity:1"
         id="path3731"
         inkscape:connector-curvature="0" /></g><g
       id="g3733"
       transform="translate(74.2283,560.6033)"><path
         d="M 0,0 H 377.149"
         style="fill:none;stroke:#000000;stroke-width:0.75;stroke-linecap:butt;stroke-linejoin:round;stroke-miterlimit:10;stroke-dasharray:none;stroke-opacity:1"
         id="path3735"
         inkscape:connector-curvature="0" /></g><g
       id="g3737"
       transform="translate(74.2283,560.6033)"><path
         d="M 0,0 V -3.018 M 62.812,0 V -3.018 M 125.692,0 V -3.018 M 188.572,0 V -3.018 M 251.452,0 V -3.018 M 314.332,0 V -3.018 M 377.149,0 v -3.018"
         style="fill:none;stroke:#000000;stroke-width:0.75;stroke-linecap:butt;stroke-linejoin:round;stroke-miterlimit:10;stroke-dasharray:none;stroke-opacity:1"
         id="path3739"
         inkscape:connector-curvature="0" /></g><g
       id="g3741"><g
         id="g3743"
         clip-path="url(#clipPath3747)"><g
           id="g3749"
           transform="translate(74.2283,670.68)"><path
             d="m 0,0 6.292,-0.96 6.24,2.04 6.36,2.04 6.24,1.68 6.24,1.32 6.36,4.2 6.24,1.56 6.36,1.08 6.24,1.2 6.24,3.84 6.36,-2.28 6.24,0.96 6.36,1.08 6.24,2.52 6.24,0.48 6.36,-1.68 6.24,1.96 6.24,-4.12 6.36,-9.24 6.24,4.32 6.36,-3.12 6.24,-4.56 6.24,2.76 6.36,1.08 6.24,-3.24 6.24,-2.04 6.36,-0.84 6.24,2.52 6.36,-0.72 6.24,-2.16 6.24,-1.44 6.36,-0.24 6.24,-0.48 6.36,-0.48 6.24,-0.36 6.24,-0.48 6.36,-0.48 6.24,-0.12 6.24,-0.24 6.36,-0.36 6.24,-0.36 6.36,-0.48 6.24,-0.24 6.24,-0.36 6.36,-0.122 6.24,0.002 h 6.36 l 6.24,0.12 6.24,0.12 6.36,0.36 h 6.24 l 6.24,0.36 6.36,0.24 6.24,0.36 6.36,0.6 6.24,0.24 6.24,0.48 6.36,0.48 6.24,0.36 6.297,0.36"
             style="fill:none;stroke:#003953;stroke-width:2.25;stroke-linecap:round;stroke-linejoin:round;stroke-miterlimit:10;stroke-dasharray:none;stroke-opacity:1"
             id="path3751"
             inkscape:connector-curvature="0" /></g></g></g><text
       transform="matrix(1,0,0,-1,60.0625,557.4832)"
       style="font-variant:normal;font-weight:normal;font-stretch:normal;font-size:9.96000004px;font-family:Arial;-inkscape-font-specification:ArialMT;writing-mode:lr-tb;fill:#000000;fill-opacity:1;fill-rule:nonzero;stroke:none"
       id="text3769"><tspan
         x="0"
         y="0"
         id="tspan3753">0</tspan><tspan
         x="-19.46184 -13.944 -11.063568 -5.5457282 -0.027888"
         y="-21.842279"
         sodipodi:role="line"
         id="tspan3755">1,000</tspan><tspan
         x="-19.46184 -13.944 -11.063568 -5.5457282 -0.027888"
         y="-43.684559"
         sodipodi:role="line"
         id="tspan3757">2,000</tspan><tspan
         x="-19.46184 -13.944 -11.063568 -5.5457282 -0.027888"
         y="-65.52684"
         sodipodi:role="line"
         id="tspan3759">3,000</tspan><tspan
         x="-19.46184 -13.944 -11.063568 -5.5457282 -0.027888"
         y="-87.369118"
         sodipodi:role="line"
         id="tspan3761">4,000</tspan><tspan
         x="-19.46184 -13.944 -11.063568 -5.5457282 -0.027888"
         y="-109.2114"
         sodipodi:role="line"
         id="tspan3763">5,000</tspan><tspan
         x="-19.46184 -13.944 -11.063568 -5.5457282 -0.027888"
         y="-131.05368"
         sodipodi:role="line"
         id="tspan3765">6,000</tspan><tspan
         x="-19.46184 -13.944 -11.063568 -5.5457282 -0.027888"
         y="-152.89597"
         sodipodi:role="line"
         id="tspan3767">7,000</tspan></text>
<g
       id="g3771"><g
         id="g3773"
         clip-path="url(#clipPath3777)"><text
           transform="matrix(1,0,0,-1,63.1083,545.5665)"
           style="font-variant:normal;font-weight:normal;font-stretch:normal;font-size:9.96000004px;font-family:Arial;-inkscape-font-specification:ArialMT;writing-mode:lr-tb;fill:#000000;fill-opacity:1;fill-rule:nonzero;stroke:none"
           id="text3781"><tspan
             x="0 5.5178399 11.158188 16.676027"
             y="0"
             sodipodi:role="line"
             id="tspan3779">1990</tspan></text>
</g></g><g
       id="g3783"><g
         id="g3785"
         clip-path="url(#clipPath3789)"><text
           transform="matrix(1,0,0,-1,125.9665,545.5665)"
           style="font-variant:normal;font-weight:normal;font-stretch:normal;font-size:9.96000004px;font-family:Arial;-inkscape-font-specification:ArialMT;writing-mode:lr-tb;fill:#000000;fill-opacity:1;fill-rule:nonzero;stroke:none"
           id="text3793"><tspan
             x="0 5.5178399 11.158188 16.676027"
             y="0"
             sodipodi:role="line"
             id="tspan3791">2000</tspan></text>
</g></g><g
       id="g3795"><g
         id="g3797"
         clip-path="url(#clipPath3801)"><text
           transform="matrix(1,0,0,-1,188.8248,545.5665)"
           style="font-variant:normal;font-weight:normal;font-stretch:normal;font-size:9.96000004px;font-family:Arial;-inkscape-font-specification:ArialMT;writing-mode:lr-tb;fill:#000000;fill-opacity:1;fill-rule:nonzero;stroke:none"
           id="text3805"><tspan
             x="0 5.5178399 11.158188 16.676027"
             y="0"
             sodipodi:role="line"
             id="tspan3803">2010</tspan></text>
</g></g><g
       id="g3807"><g
         id="g3809"
         clip-path="url(#clipPath3813)"><text
           transform="matrix(1,0,0,-1,251.683,545.5665)"
           style="font-variant:normal;font-weight:normal;font-stretch:normal;font-size:9.96000004px;font-family:Arial;-inkscape-font-specification:ArialMT;writing-mode:lr-tb;fill:#000000;fill-opacity:1;fill-rule:nonzero;stroke:none"
           id="text3817"><tspan
             x="0 5.5178399 11.158188 16.676027"
             y="0"
             sodipodi:role="line"
             id="tspan3815">2020</tspan></text>
</g></g><g
       id="g3819"><g
         id="g3821"
         clip-path="url(#clipPath3825)"><text
           transform="matrix(1,0,0,-1,314.5412,545.5665)"
           style="font-variant:normal;font-weight:normal;font-stretch:normal;font-size:9.96000004px;font-family:Arial;-inkscape-font-specification:ArialMT;writing-mode:lr-tb;fill:#000000;fill-opacity:1;fill-rule:nonzero;stroke:none"
           id="text3829"><tspan
             x="0 5.5178399 11.158188 16.676027"
             y="0"
             sodipodi:role="line"
             id="tspan3827">2030</tspan></text>
</g></g><g
       id="g3831"><g
         id="g3833"
         clip-path="url(#clipPath3837)"><text
           transform="matrix(1,0,0,-1,377.3994,545.5665)"
           style="font-variant:normal;font-weight:normal;font-stretch:normal;font-size:9.96000004px;font-family:Arial;-inkscape-font-specification:ArialMT;writing-mode:lr-tb;fill:#000000;fill-opacity:1;fill-rule:nonzero;stroke:none"
           id="text3841"><tspan
             x="0 5.5178399 11.158188 16.676027"
             y="0"
             sodipodi:role="line"
             id="tspan3839">2040</tspan></text>
</g></g><g
       id="g3843"><g
         id="g3845"
         clip-path="url(#clipPath3849)"><text
           transform="matrix(1,0,0,-1,440.2576,545.5665)"
           style="font-variant:normal;font-weight:normal;font-stretch:normal;font-size:9.96000004px;font-family:Arial;-inkscape-font-specification:ArialMT;writing-mode:lr-tb;fill:#000000;fill-opacity:1;fill-rule:nonzero;stroke:none"
           id="text3853"><tspan
             x="0 5.5178399 11.158188 16.676027"
             y="0"
             sodipodi:role="line"
             id="tspan3851">2050</tspan></text>
</g></g><g
       id="g3855"><g
         id="g3857"
         clip-path="url(#clipPath3861)"><text
           transform="matrix(1,0,0,-1,39.84,739.2)"
           style="font-variant:normal;font-weight:bold;font-stretch:normal;font-size:9.96000004px;font-family:Arial;-inkscape-font-specification:Arial-BoldMT;writing-mode:lr-tb;fill:#000000;fill-opacity:1;fill-rule:nonzero;stroke:none"
           id="text3865"><tspan
             x="0 7.2000842 9.96 16.56348 19.323397 22.201836 27.721668 33.842087 39.361919 43.196522 49.31694"
             y="0"
             sodipodi:role="line"
             id="tspan3863">U.S. energy</tspan></text>
</g></g><g
       id="g3867"><g
         id="g3869"
         clip-path="url(#clipPath3873)"><text
           transform="matrix(1,0,0,-1,94.56,739.2)"
           style="font-variant:normal;font-weight:bold;font-stretch:normal;font-size:9.96000004px;font-family:Arial;-inkscape-font-specification:Arial-BoldMT;writing-mode:lr-tb;fill:#000000;fill-opacity:1;fill-rule:nonzero;stroke:none"
           id="text3877"><tspan
             x="0"
             y="0"
             id="tspan3875">-</tspan></text>
</g></g><g
       id="g3879"><g
         id="g3881"
         clip-path="url(#clipPath3885)"><text
           transform="matrix(1,0,0,-1,97.92,739.2)"
           style="font-variant:normal;font-weight:bold;font-stretch:normal;font-size:9.96000004px;font-family:Arial;-inkscape-font-specification:Arial-BoldMT;writing-mode:lr-tb;fill:#000000;fill-opacity:1;fill-rule:nonzero;stroke:none"
           id="text3889"><tspan
             x="0 3.8395801 9.35742 12.117336 17.635176 20.994684 26.512524 32.632942 35.872932 41.390774 46.908611 50.749187 56.86861 62.989033 69.108459 71.986893 78.106323 80.867233 86.986656 92.504494 95.264412 101.38483 106.90267 109.78111 115.29895 124.17929 126.9392 132.45705 137.97488 140.7348 146.85522 152.97464 158.49248 161.37093 164.13084 170.25026 173.12871 179.96823 186.56873 194.36841 199.88625 205.40408 210.92192"
             y="0"
             sodipodi:role="line"
             id="tspan3887">related carbon dioxide emissions in AEO2019</tspan></text>
</g></g><g
       id="g3891"><g
         id="g3893"
         clip-path="url(#clipPath3897)"><text
           transform="matrix(1,0,0,-1,317.76,739.2)"
           style="font-variant:normal;font-weight:bold;font-stretch:normal;font-size:9.96000004px;font-family:Arial;-inkscape-font-specification:Arial-BoldMT;writing-mode:lr-tb;fill:#000000;fill-opacity:1;fill-rule:nonzero;stroke:none"
           id="text3901"><tspan
             x="0 7.2000842 12.717924 16.078428 21.596268 25.435848 30.953688 37.074108 42.591949 48.109787 51.107746 56.625587 62.143429 67.66127"
             y="0"
             sodipodi:role="line"
             id="tspan3899">Reference case</tspan></text>
</g></g><g
       id="g3903"><g
         id="g3905"
         clip-path="url(#clipPath3909)"><text
           transform="matrix(1,0,0,-1,393.84,739.2)"
           style="font-variant:normal;font-weight:bold;font-stretch:normal;font-size:9.96000004px;font-family:Arial;-inkscape-font-specification:Arial-BoldMT;writing-mode:lr-tb;fill:#000000;fill-opacity:1;fill-rule:nonzero;stroke:none"
           id="text3913"><tspan
             x="0 3.359508 8.8773479 14.395188 19.913029"
             y="0"
             sodipodi:role="line"
             id="tspan3911">(1990</tspan></text>
</g></g><g
       id="g3915"><g
         id="g3917"
         clip-path="url(#clipPath3921)"><text
           transform="matrix(1,0,0,-1,419.28,739.2)"
           style="font-variant:normal;font-weight:bold;font-stretch:normal;font-size:9.96000004px;font-family:Arial;-inkscape-font-specification:Arial-BoldMT;writing-mode:lr-tb;fill:#000000;fill-opacity:1;fill-rule:nonzero;stroke:none"
           id="text3925"><tspan
             x="0"
             y="0"
             id="tspan3923">-</tspan></text>
</g></g><g
       id="g3927"><g
         id="g3929"
         clip-path="url(#clipPath3933)"><text
           transform="matrix(1,0,0,-1,422.64,739.2)"
           style="font-variant:normal;font-weight:bold;font-stretch:normal;font-size:9.96000004px;font-family:Arial;-inkscape-font-specification:Arial-BoldMT;writing-mode:lr-tb;fill:#000000;fill-opacity:1;fill-rule:nonzero;stroke:none"
           id="text3937"><tspan
             x="0 5.5178399 11.03568 16.55352 22.07136"
             y="0"
             sodipodi:role="line"
             id="tspan3935">2050)</tspan></text>
</g></g><text
       transform="matrix(1,0,0,-1,39.84,727.68)"
       style="font-variant:normal;font-weight:normal;font-stretch:normal;font-size:9.96000004px;font-family:Arial;-inkscape-font-specification:ArialMT;writing-mode:lr-tb;fill:#000000;fill-opacity:1;fill-rule:nonzero;stroke:none"
       id="text3941"><tspan
         x="0 8.519784 10.681104 12.842424 15.003744 17.165064 22.684896 28.205725 31.085159 39.604942 45.125771 47.885689 51.245197 53.406517 58.446278 61.085674 63.845592 69.365425 74.885254"
         y="0"
         sodipodi:role="line"
         id="tspan3939">million metric tons</tspan></text>
<text
       transform="scale(1,-1)"
       style="font-variant:normal;font-weight:bold;font-stretch:normal;font-size:9px;font-family:Arial;-inkscape-font-specification:Arial-BoldMT;writing-mode:lr-tb;fill:#000000;fill-opacity:1;fill-rule:nonzero;stroke:none"
       id="text3945"
       x="238.52881"
       y="-714.84003"><tspan
         x="238.52881 243.56882 248.60881 253.64882"
         y="-714.84003"
         sodipodi:role="line"
         id="tspan3943">2018</tspan></text>
<text
       transform="scale(1,-1)"
       style="font-variant:normal;font-weight:normal;font-stretch:normal;font-size:9px;font-family:Arial;-inkscape-font-specification:ArialMT;writing-mode:lr-tb;fill:#000000;fill-opacity:1;fill-rule:nonzero;stroke:none"
       id="text3949"
       x="210.71646"
       y="-704.51703"><tspan
         x="210.71646 215.75647 217.79677 222.35617 224.87616 229.91617 232.91676 237.35646 257.15646 262.19647 265.19705 270.23706 272.27646 277.31647 281.87677 284.39676 286.43707 291.47705"
         y="-704.51703"
         sodipodi:role="line"
         id="tspan3947">history projection</tspan></text>
<g
       id="g4005"
       transform="matrix(0.20774185,0,0,-0.20774185,453.18893,746.3144)"><path
         id="path3976"
         d="m 13,45.1 c 1.5,-1.7 3.4,-2.5 5.8,-2.5 2.3,0 4.2,0.8 5.7,2.4 1.5,1.6 2.3,3.7 2.3,6.4 V 52 H 10.6 c 0.1,-3 1,-5.3 2.4,-6.9 m 18.6,20.5 c -1.7,1.7 -3,2.9 -4.1,3.5 -1.4,0.8 -3.1,1.2 -5,1.2 -2.1,0 -4.1,-0.7 -6,-2.1 -1.9,-1.4 -3.4,-3.3 -4.4,-5.8 -1,-2.5 -1.5,-5.3 -1.5,-8.7 v -0.4 h 22 v -0.6 c 0,-3.3 -1.3,-6.1 -3.9,-8.4 -2.6,-2.4 -5.6,-3.5 -9.1,-3.5 -4.2,0 -7.8,1.6 -10.7,4.7 -2.9,3.1 -4.3,7 -4.3,11.6 0,4.5 1.5,8.3 4.6,11.3 3,3 6.9,4.4 11.6,4.4 2.6,0 4.9,-0.5 6.8,-1.5 1.9,-1 3.7,-2.7 5.5,-5 v 0 z"
         class="st0"
         inkscape:connector-curvature="0"
         style="fill:#455560" /><path
         id="path3978"
         d="m 72.5,65.7 c -0.5,1.1 -1.4,2 -2.7,2.7 -1.2,0.7 -2.4,1.1 -3.6,1.1 C 65,69.5 63.9,69 63,67.9 62.1,66.8 61.6,65.5 61.6,64 c 0,-1.7 0.4,-3.1 1.3,-4.1 0.8,-1 2.8,-2 5.8,-3.1 1.6,-0.6 2.9,-1 3.7,-1.4 v 10.3 z m 10,1.2 c -0.4,1.1 -1.6,2.6 -2.5,2.6 -0.7,0 -1.1,-0.3 -1.3,-1 -0.2,-0.7 -0.4,-1.9 -0.4,-3.7 V 51.9 c 0,-3.5 -1,-6.2 -3,-8.1 -2,-2 -4.6,-2.9 -7.9,-2.9 -2.7,0 -5.1,0.8 -7.2,2.5 -2,1.6 -3.3,3.8 -3.9,6.5 l 1.5,0.6 c 0.6,-2 1.6,-3.6 3,-4.7 1.4,-1.2 3.1,-1.7 5,-1.7 2.1,0 3.7,0.7 4.9,2 1.2,1.3 1.8,3.1 1.8,5.3 v 2.2 c -1,0.6 -2.9,1.2 -5.7,2 -4.5,1.2 -7.4,2.6 -8.9,3.9 -1.5,1.4 -2.2,3.1 -2.2,5.2 0,2.2 0.8,4.1 2.5,5.7 1.7,1.6 3.7,2.4 6.1,2.4 1.6,0 2.9,-0.3 4.1,-0.9 1.2,-0.6 2.5,-1.7 4,-3.4 0.9,2.9 2.6,4.3 5.1,4.3 1.7,0 3.1,-0.6 4.1,-1.7 0.9,-1 1.5,-2.2 1.7,-3.8 z"
         class="st0"
         inkscape:connector-curvature="0"
         style="fill:#455560" /><path
         id="path3980"
         d="M 48.4,69.5 C 47.7,68.9 47.3,67.8 47.3,66.2 V 40.6 h -1.9 v 0.1 c -1.8,0.8 -9.6,1 -9.6,1 v 1.4 c 2.5,0 4.1,0.3 4.7,0.9 0.6,0.6 1,1.8 1,3.6 v 18.6 c 0,1.7 -0.3,2.8 -1,3.4 -0.7,0.5 -2.2,0.8 -4.7,0.8 v 1.4 h 16.5 v -1.4 c -1.9,0 -3.2,-0.3 -3.9,-0.9"
         class="st0"
         inkscape:connector-curvature="0"
         style="fill:#455560" /><path
         id="path3982"
         d="m 14.6,35.8 c 0.1,-0.1 0.3,-0.3 0.6,-0.6 9,-8.7 18.9,-15.9 28.8,-21 5.9,-3 11.6,-5.1 17,-6.2 12,-2.5 19.5,0.4 21.8,2.3 0.4,0.3 0.6,0.6 0.7,0.9 -7,-0.7 -14.3,-0.3 -21.9,1.2 -13.7,2.9 -27.6,9.3 -41.3,19.1 -1.8,1.3 -3.5,2.6 -5.2,3.9 -0.2,0.2 -0.4,0.3 -0.5,0.4"
         class="st1"
         inkscape:connector-curvature="0"
         style="fill:#6cb33f" /><path
         id="path3984"
         d="m 11.6,36.5 c 0.1,-0.2 0.3,-0.6 0.7,-1 3,-4.3 7.6,-10.5 11.2,-14.8 8.5,-10 16.6,-13 20.6,-13.8 2,-0.4 3.5,-0.4 4.1,-0.4 0,0 -0.1,0.2 -0.4,0.4 -4.3,2.3 -15.8,8.4 -26.5,19 -2.6,2.5 -4.9,5.2 -6.9,7.4 -0.8,0.9 -1.4,1.6 -2.1,2.3 -0.2,0.5 -0.5,0.7 -0.7,0.9"
         class="st2"
         inkscape:connector-curvature="0"
         style="fill:#ffdd00" /><path
         id="path3986"
         d="m 88.7,59.3 c 0,-0.4 0.1,-1 0.3,-1.6 C 91.6,50 91.4,42.8 88.4,36.9 82.2,24.7 67.3,19.8 48.4,23.7 c -8.7,1.8 -17.8,5.3 -27,10.5 -0.5,0.3 -1,0.6 -1.5,0.9 -0.5,0.3 -0.8,0.5 -1.1,0.6 0.2,-0.2 0.5,-0.4 1,-0.7 2.6,-1.8 5.4,-3.6 8.2,-5.1 8,-4.4 16.5,-7.7 24.6,-9.4 19,-3.9 34.4,0.6 40,11.8 1.9,3.8 2.6,8.1 2.1,12.8 -0.6,5.4 -2.5,10.1 -6,14.2"
         class="st3"
         inkscape:connector-curvature="0"
         style="fill:#0081c6" /><path
         id="path3988"
         d="m 47.1,33.6 c 0,1.8 -1.4,3.2 -3.2,3.2 -1.8,0 -3.2,-1.4 -3.2,-3.2 0,-1.8 1.5,-3.2 3.2,-3.2 1.7,-0.1 3.2,1.4 3.2,3.2"
         class="st0"
         inkscape:connector-curvature="0"
         style="fill:#455560" /></g></g><style
     id="style3974"
     type="text/css">
	.st0{fill:#455560;}
	.st1{fill:#6CB33F;}
	.st2{fill:#FFDD00;}
	.st3{fill:#0081C6;}
</style></svg>